<mxfile host="app.diagrams.net" modified="2020-12-20T05:41:19.551Z" agent="5.0 (Windows NT 10.0; Win64; x64) AppleWebKit/537.36 (KHTML, like Gecko) Chrome/87.0.4280.88 Safari/537.36" etag="A5tuJPg4N8rbkgP0eYxU" version="13.10.9" type="github">
  <diagram id="frVdyhJNklCl1zLrxLrN" name="Page-1">
    <mxGraphModel dx="2071" dy="1745" grid="1" gridSize="10" guides="1" tooltips="1" connect="1" arrows="1" fold="1" page="1" pageScale="1" pageWidth="850" pageHeight="1100" math="0" shadow="0">
      <root>
        <mxCell id="0" />
        <mxCell id="1" parent="0" />
        <mxCell id="5n-sFm86JBtZGQokuZy4-71" style="edgeStyle=orthogonalEdgeStyle;rounded=0;orthogonalLoop=1;jettySize=auto;html=1;" edge="1" parent="1" source="5n-sFm86JBtZGQokuZy4-1">
          <mxGeometry relative="1" as="geometry">
            <mxPoint x="360" y="260" as="targetPoint" />
          </mxGeometry>
        </mxCell>
        <mxCell id="5n-sFm86JBtZGQokuZy4-1" value="Medium quiz" style="rounded=1;whiteSpace=wrap;html=1;" vertex="1" parent="1">
          <mxGeometry x="310" y="180" width="100" height="40" as="geometry" />
        </mxCell>
        <mxCell id="5n-sFm86JBtZGQokuZy4-40" style="edgeStyle=orthogonalEdgeStyle;rounded=0;orthogonalLoop=1;jettySize=auto;html=1;entryX=0.5;entryY=0;entryDx=0;entryDy=0;" edge="1" parent="1" source="5n-sFm86JBtZGQokuZy4-3" target="5n-sFm86JBtZGQokuZy4-9">
          <mxGeometry relative="1" as="geometry" />
        </mxCell>
        <mxCell id="5n-sFm86JBtZGQokuZy4-3" value="while true =" style="rounded=0;whiteSpace=wrap;html=1;" vertex="1" parent="1">
          <mxGeometry x="295" y="-10" width="130" height="40" as="geometry" />
        </mxCell>
        <mxCell id="5n-sFm86JBtZGQokuZy4-100" style="edgeStyle=orthogonalEdgeStyle;rounded=0;orthogonalLoop=1;jettySize=auto;html=1;entryX=0.5;entryY=0;entryDx=0;entryDy=0;" edge="1" parent="1" source="5n-sFm86JBtZGQokuZy4-4" target="5n-sFm86JBtZGQokuZy4-12">
          <mxGeometry relative="1" as="geometry" />
        </mxCell>
        <mxCell id="5n-sFm86JBtZGQokuZy4-101" style="edgeStyle=orthogonalEdgeStyle;rounded=0;orthogonalLoop=1;jettySize=auto;html=1;entryX=0.608;entryY=-0.013;entryDx=0;entryDy=0;entryPerimeter=0;" edge="1" parent="1" source="5n-sFm86JBtZGQokuZy4-4" target="5n-sFm86JBtZGQokuZy4-31">
          <mxGeometry relative="1" as="geometry">
            <Array as="points">
              <mxPoint x="489" y="570" />
            </Array>
          </mxGeometry>
        </mxCell>
        <mxCell id="5n-sFm86JBtZGQokuZy4-4" value="model = true?" style="rhombus;whiteSpace=wrap;html=1;" vertex="1" parent="1">
          <mxGeometry x="310" y="530" width="100" height="80" as="geometry" />
        </mxCell>
        <mxCell id="5n-sFm86JBtZGQokuZy4-70" style="edgeStyle=orthogonalEdgeStyle;rounded=0;orthogonalLoop=1;jettySize=auto;html=1;" edge="1" parent="1" source="5n-sFm86JBtZGQokuZy4-5">
          <mxGeometry relative="1" as="geometry">
            <mxPoint x="170" y="260" as="targetPoint" />
          </mxGeometry>
        </mxCell>
        <mxCell id="5n-sFm86JBtZGQokuZy4-5" value="Short quiz" style="rounded=1;whiteSpace=wrap;html=1;" vertex="1" parent="1">
          <mxGeometry x="120" y="180" width="100" height="40" as="geometry" />
        </mxCell>
        <mxCell id="5n-sFm86JBtZGQokuZy4-38" style="edgeStyle=orthogonalEdgeStyle;rounded=0;orthogonalLoop=1;jettySize=auto;html=1;entryX=0.5;entryY=0;entryDx=0;entryDy=0;" edge="1" parent="1" source="5n-sFm86JBtZGQokuZy4-7" target="5n-sFm86JBtZGQokuZy4-13">
          <mxGeometry relative="1" as="geometry" />
        </mxCell>
        <mxCell id="5n-sFm86JBtZGQokuZy4-7" value="Start" style="ellipse;whiteSpace=wrap;html=1;" vertex="1" parent="1">
          <mxGeometry x="305" y="-240" width="110" height="50" as="geometry" />
        </mxCell>
        <mxCell id="5n-sFm86JBtZGQokuZy4-8" value="End&lt;br&gt;" style="ellipse;whiteSpace=wrap;html=1;" vertex="1" parent="1">
          <mxGeometry x="230" y="820" width="100" height="50" as="geometry" />
        </mxCell>
        <mxCell id="5n-sFm86JBtZGQokuZy4-59" style="edgeStyle=orthogonalEdgeStyle;rounded=0;orthogonalLoop=1;jettySize=auto;html=1;exitX=0.5;exitY=0;exitDx=0;exitDy=0;" edge="1" parent="1" source="5n-sFm86JBtZGQokuZy4-9">
          <mxGeometry relative="1" as="geometry">
            <mxPoint x="360" y="100" as="targetPoint" />
          </mxGeometry>
        </mxCell>
        <mxCell id="5n-sFm86JBtZGQokuZy4-63" style="edgeStyle=orthogonalEdgeStyle;rounded=0;orthogonalLoop=1;jettySize=auto;html=1;entryX=0.5;entryY=0;entryDx=0;entryDy=0;" edge="1" parent="1" source="5n-sFm86JBtZGQokuZy4-9" target="5n-sFm86JBtZGQokuZy4-1">
          <mxGeometry relative="1" as="geometry" />
        </mxCell>
        <mxCell id="5n-sFm86JBtZGQokuZy4-9" value="Welcome to the quiz&lt;br&gt;" style="rounded=1;whiteSpace=wrap;html=1;" vertex="1" parent="1">
          <mxGeometry x="285" y="90" width="150" height="40" as="geometry" />
        </mxCell>
        <mxCell id="5n-sFm86JBtZGQokuZy4-55" style="edgeStyle=orthogonalEdgeStyle;rounded=0;orthogonalLoop=1;jettySize=auto;html=1;entryX=1;entryY=0.5;entryDx=0;entryDy=0;" edge="1" parent="1" source="5n-sFm86JBtZGQokuZy4-11" target="5n-sFm86JBtZGQokuZy4-8">
          <mxGeometry relative="1" as="geometry">
            <Array as="points">
              <mxPoint x="865" y="845" />
            </Array>
          </mxGeometry>
        </mxCell>
        <mxCell id="5n-sFm86JBtZGQokuZy4-11" value="Quit" style="rounded=1;whiteSpace=wrap;html=1;" vertex="1" parent="1">
          <mxGeometry x="820" y="172.5" width="90" height="55" as="geometry" />
        </mxCell>
        <mxCell id="5n-sFm86JBtZGQokuZy4-102" style="edgeStyle=orthogonalEdgeStyle;rounded=0;orthogonalLoop=1;jettySize=auto;html=1;entryX=0;entryY=0.5;entryDx=0;entryDy=0;" edge="1" parent="1" source="5n-sFm86JBtZGQokuZy4-12" target="5n-sFm86JBtZGQokuZy4-8">
          <mxGeometry relative="1" as="geometry">
            <Array as="points">
              <mxPoint x="50" y="710" />
              <mxPoint x="50" y="846" />
            </Array>
          </mxGeometry>
        </mxCell>
        <mxCell id="5n-sFm86JBtZGQokuZy4-12" value="score = 100&amp;nbsp;&lt;br&gt;which is correct&lt;br&gt;" style="shape=parallelogram;perimeter=parallelogramPerimeter;whiteSpace=wrap;html=1;fixedSize=1;" vertex="1" parent="1">
          <mxGeometry x="165" y="680" width="130" height="60" as="geometry" />
        </mxCell>
        <mxCell id="5n-sFm86JBtZGQokuZy4-39" style="edgeStyle=orthogonalEdgeStyle;rounded=0;orthogonalLoop=1;jettySize=auto;html=1;entryX=0.5;entryY=0;entryDx=0;entryDy=0;" edge="1" parent="1" source="5n-sFm86JBtZGQokuZy4-13" target="5n-sFm86JBtZGQokuZy4-3">
          <mxGeometry relative="1" as="geometry" />
        </mxCell>
        <mxCell id="5n-sFm86JBtZGQokuZy4-13" value="Score = 0" style="rounded=1;whiteSpace=wrap;html=1;" vertex="1" parent="1">
          <mxGeometry x="295" y="-110" width="130" height="40" as="geometry" />
        </mxCell>
        <mxCell id="5n-sFm86JBtZGQokuZy4-14" value="What brand does the model corolla belong to?" style="rounded=1;whiteSpace=wrap;html=1;" vertex="1" parent="1">
          <mxGeometry x="-120" y="300" width="120" height="60" as="geometry" />
        </mxCell>
        <mxCell id="5n-sFm86JBtZGQokuZy4-18" value="toyota" style="rounded=1;whiteSpace=wrap;html=1;" vertex="1" parent="1">
          <mxGeometry x="-20" y="420" width="70" height="20" as="geometry" />
        </mxCell>
        <mxCell id="5n-sFm86JBtZGQokuZy4-92" style="edgeStyle=orthogonalEdgeStyle;rounded=0;orthogonalLoop=1;jettySize=auto;html=1;" edge="1" parent="1" source="5n-sFm86JBtZGQokuZy4-21">
          <mxGeometry relative="1" as="geometry">
            <mxPoint x="360" y="400" as="targetPoint" />
          </mxGeometry>
        </mxCell>
        <mxCell id="5n-sFm86JBtZGQokuZy4-96" style="edgeStyle=orthogonalEdgeStyle;rounded=0;orthogonalLoop=1;jettySize=auto;html=1;" edge="1" parent="1" source="5n-sFm86JBtZGQokuZy4-21">
          <mxGeometry relative="1" as="geometry">
            <mxPoint x="360" y="490" as="targetPoint" />
          </mxGeometry>
        </mxCell>
        <mxCell id="5n-sFm86JBtZGQokuZy4-21" value="holden" style="rounded=1;whiteSpace=wrap;html=1;" vertex="1" parent="1">
          <mxGeometry x="325" y="420" width="70" height="20" as="geometry" />
        </mxCell>
        <mxCell id="5n-sFm86JBtZGQokuZy4-22" value="mazda" style="rounded=1;whiteSpace=wrap;html=1;" vertex="1" parent="1">
          <mxGeometry x="660" y="420" width="70" height="20" as="geometry" />
        </mxCell>
        <mxCell id="5n-sFm86JBtZGQokuZy4-91" style="edgeStyle=orthogonalEdgeStyle;rounded=0;orthogonalLoop=1;jettySize=auto;html=1;" edge="1" parent="1" source="5n-sFm86JBtZGQokuZy4-23">
          <mxGeometry relative="1" as="geometry">
            <mxPoint x="200" y="400" as="targetPoint" />
          </mxGeometry>
        </mxCell>
        <mxCell id="5n-sFm86JBtZGQokuZy4-95" style="edgeStyle=orthogonalEdgeStyle;rounded=0;orthogonalLoop=1;jettySize=auto;html=1;" edge="1" parent="1" source="5n-sFm86JBtZGQokuZy4-23">
          <mxGeometry relative="1" as="geometry">
            <mxPoint x="200" y="490" as="targetPoint" />
          </mxGeometry>
        </mxCell>
        <mxCell id="5n-sFm86JBtZGQokuZy4-23" value="nissan" style="rounded=1;whiteSpace=wrap;html=1;" vertex="1" parent="1">
          <mxGeometry x="165" y="420" width="70" height="20" as="geometry" />
        </mxCell>
        <mxCell id="5n-sFm86JBtZGQokuZy4-103" style="edgeStyle=orthogonalEdgeStyle;rounded=0;orthogonalLoop=1;jettySize=auto;html=1;" edge="1" parent="1" source="5n-sFm86JBtZGQokuZy4-31">
          <mxGeometry relative="1" as="geometry">
            <mxPoint x="475" y="850" as="targetPoint" />
          </mxGeometry>
        </mxCell>
        <mxCell id="5n-sFm86JBtZGQokuZy4-31" value="score = 0" style="shape=parallelogram;perimeter=parallelogramPerimeter;whiteSpace=wrap;html=1;fixedSize=1;" vertex="1" parent="1">
          <mxGeometry x="410" y="680" width="130" height="60" as="geometry" />
        </mxCell>
        <mxCell id="5n-sFm86JBtZGQokuZy4-89" style="edgeStyle=orthogonalEdgeStyle;rounded=0;orthogonalLoop=1;jettySize=auto;html=1;" edge="1" parent="1" source="5n-sFm86JBtZGQokuZy4-32">
          <mxGeometry relative="1" as="geometry">
            <mxPoint x="140" y="380" as="targetPoint" />
          </mxGeometry>
        </mxCell>
        <mxCell id="5n-sFm86JBtZGQokuZy4-32" value="what brand does the model CX5 belongs to?" style="rounded=1;whiteSpace=wrap;html=1;" vertex="1" parent="1">
          <mxGeometry x="80" y="300" width="120" height="60" as="geometry" />
        </mxCell>
        <mxCell id="5n-sFm86JBtZGQokuZy4-88" style="edgeStyle=orthogonalEdgeStyle;rounded=0;orthogonalLoop=1;jettySize=auto;html=1;" edge="1" parent="1" source="5n-sFm86JBtZGQokuZy4-34">
          <mxGeometry relative="1" as="geometry">
            <mxPoint x="545" y="380" as="targetPoint" />
          </mxGeometry>
        </mxCell>
        <mxCell id="5n-sFm86JBtZGQokuZy4-34" value="&lt;span style=&quot;color: rgb(0 , 0 , 0) ; font-family: &amp;#34;helvetica&amp;#34; ; font-size: 12px ; font-style: normal ; font-weight: 400 ; letter-spacing: normal ; text-align: center ; text-indent: 0px ; text-transform: none ; word-spacing: 0px ; background-color: rgb(248 , 249 , 250) ; display: inline ; float: none&quot;&gt;what brand does the model quasqai belongs to?&lt;/span&gt;" style="rounded=1;whiteSpace=wrap;html=1;" vertex="1" parent="1">
          <mxGeometry x="485" y="300" width="120" height="60" as="geometry" />
        </mxCell>
        <mxCell id="5n-sFm86JBtZGQokuZy4-87" style="edgeStyle=orthogonalEdgeStyle;rounded=0;orthogonalLoop=1;jettySize=auto;html=1;" edge="1" parent="1" source="5n-sFm86JBtZGQokuZy4-35">
          <mxGeometry relative="1" as="geometry">
            <mxPoint x="355" y="380" as="targetPoint" />
          </mxGeometry>
        </mxCell>
        <mxCell id="5n-sFm86JBtZGQokuZy4-35" value="&lt;span style=&quot;color: rgb(0 , 0 , 0) ; font-family: &amp;#34;helvetica&amp;#34; ; font-size: 12px ; font-style: normal ; font-weight: 400 ; letter-spacing: normal ; text-align: center ; text-indent: 0px ; text-transform: none ; word-spacing: 0px ; background-color: rgb(248 , 249 , 250) ; display: inline ; float: none&quot;&gt;what brand does the model polo gti belongs to?&lt;/span&gt;" style="rounded=1;whiteSpace=wrap;html=1;" vertex="1" parent="1">
          <mxGeometry x="295" y="300" width="120" height="60" as="geometry" />
        </mxCell>
        <mxCell id="5n-sFm86JBtZGQokuZy4-36" value="&lt;span style=&quot;color: rgb(0 , 0 , 0) ; font-family: &amp;#34;helvetica&amp;#34; ; font-size: 12px ; font-style: normal ; font-weight: 400 ; letter-spacing: normal ; text-align: center ; text-indent: 0px ; text-transform: none ; word-spacing: 0px ; background-color: rgb(248 , 249 , 250) ; display: inline ; float: none&quot;&gt;what brand does the model astra belongs to?&lt;/span&gt;" style="rounded=1;whiteSpace=wrap;html=1;" vertex="1" parent="1">
          <mxGeometry x="680" y="300" width="120" height="60" as="geometry" />
        </mxCell>
        <mxCell id="5n-sFm86JBtZGQokuZy4-37" style="edgeStyle=orthogonalEdgeStyle;rounded=0;orthogonalLoop=1;jettySize=auto;html=1;exitX=0.5;exitY=1;exitDx=0;exitDy=0;" edge="1" parent="1" source="5n-sFm86JBtZGQokuZy4-9" target="5n-sFm86JBtZGQokuZy4-9">
          <mxGeometry relative="1" as="geometry" />
        </mxCell>
        <mxCell id="5n-sFm86JBtZGQokuZy4-72" style="edgeStyle=orthogonalEdgeStyle;rounded=0;orthogonalLoop=1;jettySize=auto;html=1;" edge="1" parent="1" source="5n-sFm86JBtZGQokuZy4-51">
          <mxGeometry relative="1" as="geometry">
            <mxPoint x="560" y="260" as="targetPoint" />
          </mxGeometry>
        </mxCell>
        <mxCell id="5n-sFm86JBtZGQokuZy4-80" value="" style="edgeStyle=orthogonalEdgeStyle;rounded=0;orthogonalLoop=1;jettySize=auto;html=1;" edge="1" parent="1" source="5n-sFm86JBtZGQokuZy4-51" target="5n-sFm86JBtZGQokuZy4-34">
          <mxGeometry relative="1" as="geometry" />
        </mxCell>
        <mxCell id="5n-sFm86JBtZGQokuZy4-51" value="Long quiz" style="rounded=1;whiteSpace=wrap;html=1;" vertex="1" parent="1">
          <mxGeometry x="510" y="180" width="100" height="40" as="geometry" />
        </mxCell>
        <mxCell id="5n-sFm86JBtZGQokuZy4-57" value="yes" style="text;html=1;strokeColor=none;fillColor=none;align=center;verticalAlign=middle;whiteSpace=wrap;rounded=0;" vertex="1" parent="1">
          <mxGeometry x="870" y="340" width="40" height="20" as="geometry" />
        </mxCell>
        <mxCell id="5n-sFm86JBtZGQokuZy4-61" style="edgeStyle=orthogonalEdgeStyle;rounded=0;orthogonalLoop=1;jettySize=auto;html=1;exitX=0.5;exitY=1;exitDx=0;exitDy=0;" edge="1" parent="1">
          <mxGeometry relative="1" as="geometry">
            <mxPoint x="550" y="440" as="sourcePoint" />
            <mxPoint x="550" y="440" as="targetPoint" />
          </mxGeometry>
        </mxCell>
        <mxCell id="5n-sFm86JBtZGQokuZy4-65" value="" style="endArrow=classic;html=1;entryX=0.5;entryY=0;entryDx=0;entryDy=0;" edge="1" parent="1" target="5n-sFm86JBtZGQokuZy4-5">
          <mxGeometry width="50" height="50" relative="1" as="geometry">
            <mxPoint x="360" y="150" as="sourcePoint" />
            <mxPoint x="220" y="100" as="targetPoint" />
            <Array as="points">
              <mxPoint x="170" y="150" />
            </Array>
          </mxGeometry>
        </mxCell>
        <mxCell id="5n-sFm86JBtZGQokuZy4-66" value="" style="endArrow=classic;html=1;entryX=0.5;entryY=0;entryDx=0;entryDy=0;" edge="1" parent="1" target="5n-sFm86JBtZGQokuZy4-51">
          <mxGeometry width="50" height="50" relative="1" as="geometry">
            <mxPoint x="360" y="150" as="sourcePoint" />
            <mxPoint x="560" y="150" as="targetPoint" />
            <Array as="points">
              <mxPoint x="560" y="150" />
            </Array>
          </mxGeometry>
        </mxCell>
        <mxCell id="5n-sFm86JBtZGQokuZy4-67" value="" style="endArrow=classic;html=1;" edge="1" parent="1">
          <mxGeometry width="50" height="50" relative="1" as="geometry">
            <mxPoint x="435" y="110" as="sourcePoint" />
            <mxPoint x="870" y="170" as="targetPoint" />
            <Array as="points">
              <mxPoint x="870" y="110" />
            </Array>
          </mxGeometry>
        </mxCell>
        <mxCell id="5n-sFm86JBtZGQokuZy4-68" value="" style="endArrow=classic;startArrow=classic;html=1;entryX=0.5;entryY=0;entryDx=0;entryDy=0;exitX=0.5;exitY=0;exitDx=0;exitDy=0;" edge="1" parent="1" source="5n-sFm86JBtZGQokuZy4-14" target="5n-sFm86JBtZGQokuZy4-36">
          <mxGeometry width="50" height="50" relative="1" as="geometry">
            <mxPoint x="-70" y="280" as="sourcePoint" />
            <mxPoint x="750" y="280" as="targetPoint" />
            <Array as="points">
              <mxPoint x="-60" y="260" />
              <mxPoint x="740" y="260" />
            </Array>
          </mxGeometry>
        </mxCell>
        <mxCell id="5n-sFm86JBtZGQokuZy4-77" value="" style="endArrow=classic;html=1;entryX=0.5;entryY=0;entryDx=0;entryDy=0;" edge="1" parent="1" target="5n-sFm86JBtZGQokuZy4-32">
          <mxGeometry width="50" height="50" relative="1" as="geometry">
            <mxPoint x="140" y="260" as="sourcePoint" />
            <mxPoint x="190" y="210" as="targetPoint" />
          </mxGeometry>
        </mxCell>
        <mxCell id="5n-sFm86JBtZGQokuZy4-78" value="" style="endArrow=classic;html=1;entryX=0.5;entryY=0;entryDx=0;entryDy=0;" edge="1" parent="1" target="5n-sFm86JBtZGQokuZy4-35">
          <mxGeometry width="50" height="50" relative="1" as="geometry">
            <mxPoint x="355" y="260" as="sourcePoint" />
            <mxPoint x="410" y="210" as="targetPoint" />
          </mxGeometry>
        </mxCell>
        <mxCell id="5n-sFm86JBtZGQokuZy4-93" style="edgeStyle=orthogonalEdgeStyle;rounded=0;orthogonalLoop=1;jettySize=auto;html=1;" edge="1" parent="1" source="5n-sFm86JBtZGQokuZy4-81">
          <mxGeometry relative="1" as="geometry">
            <mxPoint x="545" y="400" as="targetPoint" />
          </mxGeometry>
        </mxCell>
        <mxCell id="5n-sFm86JBtZGQokuZy4-97" style="edgeStyle=orthogonalEdgeStyle;rounded=0;orthogonalLoop=1;jettySize=auto;html=1;" edge="1" parent="1" source="5n-sFm86JBtZGQokuZy4-81">
          <mxGeometry relative="1" as="geometry">
            <mxPoint x="545" y="490" as="targetPoint" />
          </mxGeometry>
        </mxCell>
        <mxCell id="5n-sFm86JBtZGQokuZy4-81" value="volkswagen" style="rounded=1;whiteSpace=wrap;html=1;" vertex="1" parent="1">
          <mxGeometry x="510" y="420" width="70" height="20" as="geometry" />
        </mxCell>
        <mxCell id="5n-sFm86JBtZGQokuZy4-82" value="" style="endArrow=classic;startArrow=classic;html=1;entryX=0.571;entryY=0;entryDx=0;entryDy=0;entryPerimeter=0;" edge="1" parent="1" target="5n-sFm86JBtZGQokuZy4-22">
          <mxGeometry width="50" height="50" relative="1" as="geometry">
            <mxPoint x="10" y="420" as="sourcePoint" />
            <mxPoint x="700" y="410" as="targetPoint" />
            <Array as="points">
              <mxPoint x="10" y="400" />
              <mxPoint x="700" y="400" />
            </Array>
          </mxGeometry>
        </mxCell>
        <mxCell id="5n-sFm86JBtZGQokuZy4-85" value="" style="endArrow=classic;startArrow=classic;html=1;entryX=0.565;entryY=1.034;entryDx=0;entryDy=0;entryPerimeter=0;exitX=0.5;exitY=1;exitDx=0;exitDy=0;" edge="1" parent="1" source="5n-sFm86JBtZGQokuZy4-14" target="5n-sFm86JBtZGQokuZy4-36">
          <mxGeometry width="50" height="50" relative="1" as="geometry">
            <mxPoint x="-60" y="390" as="sourcePoint" />
            <mxPoint x="750" y="390" as="targetPoint" />
            <Array as="points">
              <mxPoint x="-60" y="380" />
              <mxPoint x="748" y="380" />
            </Array>
          </mxGeometry>
        </mxCell>
        <mxCell id="5n-sFm86JBtZGQokuZy4-90" value="" style="endArrow=classic;html=1;" edge="1" parent="1">
          <mxGeometry width="50" height="50" relative="1" as="geometry">
            <mxPoint x="360" y="380" as="sourcePoint" />
            <mxPoint x="360" y="400" as="targetPoint" />
          </mxGeometry>
        </mxCell>
        <mxCell id="5n-sFm86JBtZGQokuZy4-94" value="" style="endArrow=classic;startArrow=classic;html=1;exitX=0.5;exitY=1;exitDx=0;exitDy=0;entryX=0.5;entryY=1;entryDx=0;entryDy=0;" edge="1" parent="1" source="5n-sFm86JBtZGQokuZy4-18" target="5n-sFm86JBtZGQokuZy4-22">
          <mxGeometry width="50" height="50" relative="1" as="geometry">
            <mxPoint x="380" y="520" as="sourcePoint" />
            <mxPoint x="430" y="470" as="targetPoint" />
            <Array as="points">
              <mxPoint x="15" y="490" />
              <mxPoint x="695" y="490" />
            </Array>
          </mxGeometry>
        </mxCell>
        <mxCell id="5n-sFm86JBtZGQokuZy4-99" value="" style="endArrow=classic;html=1;entryX=0.5;entryY=0;entryDx=0;entryDy=0;" edge="1" parent="1" target="5n-sFm86JBtZGQokuZy4-4">
          <mxGeometry width="50" height="50" relative="1" as="geometry">
            <mxPoint x="360" y="490" as="sourcePoint" />
            <mxPoint x="430" y="470" as="targetPoint" />
          </mxGeometry>
        </mxCell>
      </root>
    </mxGraphModel>
  </diagram>
</mxfile>
